# xmcd CD database file
# Copyright (C) 1993-1998 Ti Kan
#
# Track frame offsets:
#  180
#  39077
#  56714
#  101212
#  141014
#  189956
#
# Disc length: 2773 seconds
#
# Revision: 1
# Processed by: cddbd v1.4b41PL1 Copyright (c) Steve Scherf et al.
# Submitted via: KiC 2.1 - (C) 1996-1998 Alwin Hoogerdijk
#
DISCID=4a0ad306
DTITLE=Jeffrey Sick - Street of Dreams
DYEAR=1900
DGENRE=
TTITLE0=Street of Dreams
TTITLE1=Sing This All Together
TTITLE2=Underhill's Waltz
TTITLE3=Tarot
TTITLE4=Waterfall
TTITLE5=Underhill (Bonus Mix)
EXTD=
EXTT0=
EXTT1=
EXTT2=
EXTT3=
EXTT4=
EXTT5=
PLAYORDER=
